<?xml version="1.0" encoding="utf-8"?>
<!-- Generator: Adobe Illustrator 17.1.0, SVG Export Plug-In . SVG Version: 6.00 Build 0)  -->
<!DOCTYPE svg PUBLIC "-//W3C//DTD SVG 1.1//EN" "http://www.w3.org/Graphics/SVG/1.1/DTD/svg11.dtd">
<svg version="1.1" id="Layer_1" xmlns="http://www.w3.org/2000/svg" xmlns:xlink="http://www.w3.org/1999/xlink" x="0px" y="0px"
	 viewBox="0 0 387.944 128.012" enable-background="new 0 0 387.944 128.012" xml:space="preserve">
<path fill="#6B6B34" stroke="#525A26" stroke-miterlimit="10" d="M54.284,92.795c0,0,55.694-111.388,287.171-88.762
	c0,0,34.809,0.896,45.251-3.033C386.706,1,253.807,207.569,54.284,92.795z"/>
<g>
	<g>
		<path fill="#333B0F" d="M2.449,121.033c2.581-10.956,14.556-17.688,24.036-21.97c12.243-5.531,26.61-6.62,39.703-8.954
			c20.245-3.609,41.299-3.421,61.25-8.591c14.698-3.809,29.145-12.244,30.068-28.912c0.107-1.924-0.762-17.283-6.037-12.235
			c-5.353,5.123-6.088,14.908-6.578,21.78c-0.552,7.737-1.127,15.312-3.834,22.647c-0.425,1.152,1.301,2.17,2.089,1.216
			c1.891-2.29,3.307-4.924,4.883-7.43c1.325-2.107,2.792-4.173,4.785-5.699c3.404-2.607,4.829,1.755,5.498,4.114
			c1.396,4.927,7.049,6.896,11.668,6.232c5.523-0.794,11.393-3.849,14.586-8.56c2.075-3.061,3.959-9.152-0.29-11.415
			c-3.268-1.741-6.959,2.293-8.399,4.71c-2.325,3.9-0.756,7.924,3.152,9.812c4.995,2.413,10.44,0.907,14.449-2.503
			c4.612-3.922,7.527-12.05,14.246-12.733c0.812-0.083,1.416-0.734,1.205-1.582c-2.698-10.874-13.966,1.692-13.734,8.1
			c0.155,4.271,4.548,5.463,7.831,3.897c4.502-2.147,7.53-7.888,10.029-11.941c-0.762-0.321-1.523-0.642-2.285-0.963
			c-2.724,6.827,4.702,11.622,10.768,8.28c6.83-3.763,10.68-11.61,13.362-18.625c2.262-5.916,5.489-14.927,1.957-20.94
			c-3.515-5.983-8.774-1.072-10.682,3.019c-2.709,5.805-3.43,12.532-4.089,18.832c-0.733,7.008-0.062,14.787,8.921,14.176
			c8.059-0.547,14.745-7.64,18.089-14.392c4.474-9.035,4.459-19.64,7.419-29.163c0.415-1.334-1.704-2.27-2.285-0.963
			c-2.65,5.968-4.998,12.078-6.846,18.344c-1.419,4.813-3.849,12.513-0.617,17.113c7.825,11.137,21.51-8.04,25.191-13.785
			c2.681-4.184,4.366-7.95,4.804-12.911c0.417-4.721,0.787-11.317-1.649-15.618c-2.319-4.094-5.553,2.013-6.242,3.819
			c-4.399,11.515-0.728,24.181-5.443,35.538c-0.542,1.306,1.722,2.256,2.285,0.963c2.507-5.758,7.006-11.11,12.693-13.907
			c-0.612-0.249-1.224-0.498-1.836-0.747c0.955,4.247,0.709,7.904,4.548,10.593c3.362,2.355,8.943-0.302,12.113-1.669
			c12.91-5.566,24.715-13.429,36.5-21.008c10.217-6.57,20.708-16.618,33.646-15.745c8.038,0.543,18.881,3.414,23.612-5.259
			c0.772-1.416-1.387-2.677-2.159-1.262c-4.397,8.061-16.325,4.205-23.66,3.901c-9.216-0.382-17.936,6.146-25.149,11.062
			c-9.635,6.567-19.415,12.964-29.52,18.792c-4.711,2.717-9.579,5.123-14.533,7.361c-2.729,1.233-5.834,2.459-8.877,1.95
			c-3.765-0.63-3.506-6.686-4.112-9.38c-0.188-0.835-1.147-1.086-1.836-0.747c-6.027,2.964-10.93,8.693-13.59,14.803
			c0.762,0.321,1.523,0.642,2.285,0.963c3.126-7.528,2.586-15.523,2.926-23.503c0.189-4.436,1.086-8.654,2.815-12.737
			c1.112-2.627,1.517-3.025,2.191-0.151c1.966,8.387,0.491,16.478-3.97,23.636c-2.351,3.771-18.427,24.734-21.783,11.73
			c-1.318-5.108,1.283-11.717,2.822-16.523c1.564-4.882,3.47-9.672,5.55-14.356c-0.762-0.321-1.523-0.642-2.285-0.963
			c-3.761,12.102-3.01,26.358-12.357,36.019c-3.691,3.815-16.159,10.355-17.339,1.005c-0.624-4.945,0.516-10.266,1.272-15.141
			c0.634-4.084,1.826-8.332,3.96-11.885c2.609-4.344,5.807-0.287,6.123,3.097c0.275,2.94-0.473,5.972-1.176,8.802
			c-1.121,4.513-2.843,8.903-5.004,13.013c-1.538,2.925-3.431,5.636-5.705,8.033c-1.223,1.289-2.698,2.281-4.338,2.959
			c-3.685,1.522-8.01-1.62-6.358-5.759c0.542-1.359-1.569-2.124-2.285-0.963c-1.81,2.935-8.113,14.509-12.521,10.778
			c-3.991-3.378,6.354-16.115,8.142-8.908c0.402-0.527,0.804-1.055,1.205-1.582c-8.642,0.879-11.396,10.57-17.928,14.906
			c-4.397,2.919-15.21,1.282-11.761-5.721c0.828-1.68,2.663-3.579,4.608-3.804c3.286-0.381,0.891,6.171,0.288,7.213
			c-2.755,4.758-8.945,7.796-14.254,8.217c-3.403,0.27-6.604-1.259-7.954-4.518c-0.671-1.62-0.437-3.717-1.602-5.131
			c-6.65-8.075-14.969,9.686-17.743,13.044c0.696,0.405,1.393,0.811,2.089,1.216c4.163-11.282,2.408-23.264,5.635-34.642
			c0.594-2.095,1.373-4.137,2.327-6.093c1.059-2.172,1.996-3.327,2.819-0.382c1.313,4.698,1.016,10.139-0.353,14.776
			c-4.797,16.247-26.298,20.524-40.644,22.69c-7.346,1.109-14.763,1.63-22.158,2.288c-15.127,1.346-30.036,4.426-44.952,7.171
			c-10.522,1.936-19.835,4.407-29.136,9.891c-7.3,4.304-14.939,10.598-16.967,19.207C-0.331,121.936,2.079,122.601,2.449,121.033
			L2.449,121.033z"/>
	</g>
</g>
<g>
	<g>
		<path fill="#333B0F" d="M240.226,44.396c8.199-4.694,17.569-6.415,24.642-13.091c1.174-1.109-0.597-2.873-1.768-1.768
			c-6.874,6.489-16.16,8.134-24.136,12.7C237.566,43.038,238.824,45.198,240.226,44.396L240.226,44.396z"/>
	</g>
</g>
<g>
	<path fill="#333B18" stroke="#333B0F" stroke-width="0.5" stroke-miterlimit="10" d="M208.853,90.515
		c0-0.909,0.614-1.547,1.474-1.547s1.448,0.638,1.448,1.547c0,0.884-0.564,1.547-1.473,1.547
		C209.443,92.062,208.853,91.399,208.853,90.515z"/>
	<path fill="#333B18" stroke="#333B0F" stroke-width="0.5" stroke-miterlimit="10" d="M226.088,91.252
		c-0.786,0.393-2.357,0.785-4.37,0.785c-4.665,0-8.176-2.945-8.176-8.372c0-5.18,3.511-8.69,8.643-8.69
		c2.062,0,3.363,0.441,3.928,0.736l-0.516,1.743c-0.811-0.393-1.964-0.688-3.339-0.688c-3.879,0-6.457,2.479-6.457,6.825
		c0,4.051,2.332,6.653,6.358,6.653c1.302,0,2.627-0.27,3.486-0.688L226.088,91.252z"/>
	<path fill="#333B18" stroke="#333B0F" stroke-width="0.5" stroke-miterlimit="10" d="M242.388,83.346
		c0,5.695-3.462,8.716-7.685,8.716c-4.37,0-7.439-3.389-7.439-8.397c0-5.254,3.266-8.69,7.685-8.69
		C239.466,74.974,242.388,78.435,242.388,83.346z M229.547,83.616c0,3.535,1.915,6.703,5.278,6.703c3.389,0,5.304-3.118,5.304-6.875
		c0-3.29-1.719-6.727-5.278-6.727C231.314,76.718,229.547,79.982,229.547,83.616z"/>
	<path fill="#333B18" stroke="#333B0F" stroke-width="0.5" stroke-miterlimit="10" d="M259.104,84.524
		c-0.123-2.308-0.271-5.082-0.246-7.145h-0.073c-0.565,1.94-1.252,4.002-2.087,6.285l-2.922,8.028h-1.62l-2.677-7.881
		c-0.785-2.332-1.448-4.468-1.915-6.433h-0.049c-0.049,2.062-0.172,4.837-0.319,7.316l-0.441,7.096h-2.038l1.154-16.548h2.725
		l2.824,8.004c0.687,2.038,1.252,3.854,1.669,5.573h0.074c0.417-1.67,1.006-3.486,1.743-5.573l2.945-8.004h2.726l1.031,16.548
		h-2.087L259.104,84.524z"/>
</g>
</svg>
