<?xml version="1.0" encoding="utf-8"?>
<!-- Generator: Adobe Illustrator 17.1.0, SVG Export Plug-In . SVG Version: 6.00 Build 0)  -->
<!DOCTYPE svg PUBLIC "-//W3C//DTD SVG 1.1//EN" "http://www.w3.org/Graphics/SVG/1.1/DTD/svg11.dtd">
<svg version="1.1" id="Layer_1" xmlns="http://www.w3.org/2000/svg" xmlns:xlink="http://www.w3.org/1999/xlink" x="0px" y="0px"
	 viewBox="0 109.8 432 68.5" enable-background="new 0 109.8 432 68.5" xml:space="preserve">
<linearGradient id="SVGID_1_" gradientUnits="userSpaceOnUse" x1="48.7649" y1="161.7748" x2="112.3557" y2="161.7748">
	<stop  offset="0" style="stop-color:#9957A3"/>
	<stop  offset="1" style="stop-color:#F8C3FF"/>
</linearGradient>
<path fill="url(#SVGID_1_)" d="M48.8,165.2c0,0,25.7,32,63.6-9.2C112.4,156,65.8,129.5,48.8,165.2z"/>
<linearGradient id="SVGID_2_" gradientUnits="userSpaceOnUse" x1="0" y1="161.7748" x2="63.5908" y2="161.7748">
	<stop  offset="0" style="stop-color:#9957A3"/>
	<stop  offset="1" style="stop-color:#F8C3FF"/>
</linearGradient>
<path fill="url(#SVGID_2_)" d="M63.6,165.2c0,0-25.7,32-63.6-9.2C0,156,46.5,129.5,63.6,165.2z"/>
<linearGradient id="SVGID_3_" gradientUnits="userSpaceOnUse" x1="19.8985" y1="149.3878" x2="55.7923" y2="149.3878">
	<stop  offset="0" style="stop-color:#9957A3"/>
	<stop  offset="1" style="stop-color:#F8C3FF"/>
</linearGradient>
<path fill="url(#SVGID_3_)" d="M20.1,124.8c0,0-3.8,35.5,26.2,47.6c0,0,6.1,1.9,9.3,1.6C55.5,174,61.3,128,20.1,124.8z"/>
<linearGradient id="SVGID_4_" gradientUnits="userSpaceOnUse" x1="55.5378" y1="149.3878" x2="91.4319" y2="149.3878">
	<stop  offset="0" style="stop-color:#9957A3"/>
	<stop  offset="1" style="stop-color:#F8C3FF"/>
</linearGradient>
<path fill="url(#SVGID_4_)" d="M91.3,124.8c0,0,3.8,35.5-26.2,47.6c0,0-6.1,1.9-9.3,1.6C55.8,174,50.1,128,91.3,124.8z"/>
<linearGradient id="SVGID_5_" gradientUnits="userSpaceOnUse" x1="40.8421" y1="141.8808" x2="71.166" y2="141.8808">
	<stop  offset="0" style="stop-color:#9957A3"/>
	<stop  offset="1" style="stop-color:#F8C3FF"/>
</linearGradient>
<path fill="url(#SVGID_5_)" d="M55.5,174c0,0,35.4-20.8,0-64.3C55.5,109.8,22.6,152,55.5,174z"/>
<path fill="#F7ECF9" d="M118.4,111.4h11.8v23.1c2.3-2,4.7-3.5,7-4.5s4.7-1.5,7.1-1.5c4.7,0,8.7,1.6,11.9,4.9c2.8,2.8,4.1,7,4.1,12.4
	V177h-11.7v-20.8c0-5.5-0.3-9.2-0.8-11.1c-0.5-1.9-1.4-3.4-2.7-4.4c-1.3-1-2.8-1.4-4.7-1.4c-2.4,0-4.5,0.8-6.2,2.4
	c-1.7,1.6-2.9,3.8-3.6,6.5c-0.3,1.4-0.5,4.7-0.5,9.8v19h-11.8L118.4,111.4L118.4,111.4z"/>
<path fill="#F7ECF9" d="M211.6,156.8h-38.2c0.6,3.4,2,6,4.4,8s5.4,3,9.2,3c4.4,0,8.3-1.6,11.4-4.7l10,4.7c-2.5,3.5-5.5,6.2-9,7.9
	s-7.6,2.5-12.4,2.5c-7.4,0-13.5-2.3-18.2-7c-4.7-4.7-7-10.6-7-17.6c0-7.2,2.3-13.2,7-18c4.7-4.8,10.5-7.2,17.5-7.2
	c7.5,0,13.5,2.4,18.2,7.2c4.7,4.8,7,11.1,7,18.9L211.6,156.8z M199.8,147.4c-0.8-2.6-2.3-4.8-4.6-6.4c-2.3-1.7-5-2.5-8-2.5
	c-3.3,0-6.2,0.9-8.7,2.8c-1.6,1.2-3,3.2-4.4,6.1L199.8,147.4L199.8,147.4z"/>
<path fill="#F7ECF9" d="M251.1,129.7H263V177h-11.9v-5c-2.3,2.2-4.6,3.8-7,4.8c-2.3,1-4.9,1.5-7.6,1.5c-6.1,0-11.4-2.4-15.9-7.1
	c-4.5-4.7-6.7-10.6-6.7-17.7c0-7.3,2.2-13.3,6.5-18c4.3-4.7,9.6-7,15.7-7c2.8,0,5.5,0.5,8,1.6c2.5,1.1,4.8,2.7,6.9,4.8L251.1,129.7
	L251.1,129.7z M238.6,139.4c-3.7,0-6.7,1.3-9.2,3.9c-2.4,2.6-3.6,5.9-3.6,10c0,4.1,1.2,7.5,3.7,10.1c2.5,2.6,5.5,4,9.1,4
	c3.7,0,6.8-1.3,9.3-3.9c2.5-2.6,3.7-6,3.7-10.2c0-4.1-1.2-7.5-3.7-10C245.5,140.7,242.4,139.4,238.6,139.4z"/>
<path fill="#F7ECF9" d="M267.3,111.4h11.9V177h-11.9V111.4z"/>
<path fill="#F7ECF9" d="M288.3,112.2h11.9v17.5h7.1v10.2h-7.1V177h-11.9v-37.1h-6.1v-10.2h6.1V112.2z"/>
<path fill="#F7ECF9" d="M312,111.4h11.8v23.1c2.3-2,4.7-3.5,7-4.5c2.4-1,4.7-1.5,7.1-1.5c4.7,0,8.7,1.6,11.9,4.9
	c2.8,2.8,4.1,7,4.1,12.4V177h-11.7v-20.8c0-5.5-0.3-9.2-0.8-11.1c-0.5-1.9-1.4-3.4-2.7-4.4c-1.3-1-2.8-1.4-4.7-1.4
	c-2.4,0-4.5,0.8-6.2,2.4c-1.7,1.6-2.9,3.8-3.6,6.5c-0.3,1.4-0.5,4.7-0.5,9.8v19H312L312,111.4L312,111.4z"/>
<g>
	<g>
		<path fill="#F7ECF9" d="M360.4,168.8c0.7,0,1.2,0.2,1.7,0.7s0.7,1,0.7,1.7c0,0.7-0.2,1.2-0.7,1.7s-1,0.7-1.7,0.7
			c-0.7,0-1.2-0.2-1.7-0.7c-0.5-0.5-0.7-1-0.7-1.7c0-0.7,0.2-1.2,0.7-1.7S359.8,168.8,360.4,168.8z"/>
		<path fill="#F7ECF9" d="M383.1,160l-3.5,1.9c-0.6-0.7-1.3-1.1-1.9-1.4s-1.4-0.4-2.2-0.4c-1.6,0-2.8,0.5-3.8,1.4
			c-1,0.9-1.4,2.1-1.4,3.6c0,1.4,0.5,2.6,1.4,3.4c0.9,0.9,2.1,1.3,3.6,1.3c1.9,0,3.3-0.6,4.3-1.9l3.3,2.2c-1.8,2.3-4.3,3.5-7.5,3.5
			c-2.9,0-5.2-0.9-6.8-2.6c-1.6-1.7-2.5-3.7-2.5-6c0-1.6,0.4-3.1,1.2-4.4c0.8-1.3,1.9-2.4,3.3-3.2c1.4-0.8,3-1.2,4.8-1.2
			c1.6,0,3.1,0.3,4.4,1C381.2,157.8,382.2,158.8,383.1,160z"/>
		<path fill="#F7ECF9" d="M394.6,156.2c1.6,0,3,0.4,4.4,1.2c1.4,0.8,2.4,1.8,3.2,3.2c0.8,1.3,1.2,2.8,1.2,4.3c0,1.6-0.4,3-1.2,4.4
			c-0.8,1.4-1.8,2.4-3.2,3.2c-1.3,0.8-2.8,1.1-4.4,1.1c-2.4,0-4.4-0.8-6.1-2.5c-1.7-1.7-2.5-3.7-2.5-6.1c0-2.6,0.9-4.7,2.8-6.5
			C390.5,156.9,392.4,156.2,394.6,156.2z M394.6,160.1c-1.3,0-2.4,0.4-3.2,1.3c-0.9,0.9-1.3,2-1.3,3.4c0,1.4,0.4,2.6,1.3,3.5
			c0.8,0.9,1.9,1.3,3.2,1.3c1.3,0,2.4-0.4,3.2-1.4c0.9-0.9,1.3-2.1,1.3-3.5c0-1.4-0.4-2.6-1.3-3.5
			C397,160.5,395.9,160.1,394.6,160.1z"/>
		<path fill="#F7ECF9" d="M406.7,156.6h4.1v1.9c0.7-0.8,1.5-1.4,2.4-1.7c0.9-0.4,1.8-0.6,2.8-0.6c1,0,2,0.3,2.8,0.8
			c0.8,0.5,1.5,1.2,2,2.2c0.7-1,1.5-1.7,2.4-2.2c1-0.5,2-0.8,3.1-0.8c1.2,0,2.2,0.3,3.1,0.8c0.9,0.5,1.5,1.3,1.9,2.1
			s0.6,2.3,0.6,4.3v9.7h-4.2v-8.4c0-1.9-0.2-3.1-0.7-3.8s-1.2-1-2.1-1c-0.7,0-1.3,0.2-1.9,0.6c-0.6,0.4-1,1-1.3,1.7
			c-0.3,0.7-0.4,1.9-0.4,3.4v7.5h-4.2v-8c0-1.5-0.1-2.5-0.3-3.2c-0.2-0.7-0.5-1.2-1-1.5c-0.4-0.3-1-0.5-1.6-0.5
			c-0.7,0-1.3,0.2-1.9,0.6c-0.6,0.4-1,1-1.3,1.7c-0.3,0.7-0.4,1.9-0.4,3.5v7.4h-4.1L406.7,156.6L406.7,156.6z"/>
	</g>
</g>
</svg>
